<svg width="800" height="400" viewBox="0 0 800 400" fill="none" xmlns="http://www.w3.org/2000/svg">
  <defs>
    <linearGradient id="bannerGradient" x1="0%" y1="0%" x2="100%" y2="100%">
      <stop offset="0%" style="stop-color:#EFF6FF;stop-opacity:1" />
      <stop offset="100%" style="stop-color:#DBEAFE;stop-opacity:1" />
    </linearGradient>
    <linearGradient id="truckGradient" x1="0%" y1="0%" x2="100%" y2="100%">
      <stop offset="0%" style="stop-color:#3B82F6;stop-opacity:1" />
      <stop offset="100%" style="stop-color:#1D4ED8;stop-opacity:1" />
    </linearGradient>
  </defs>
  
  <!-- Background -->
  <rect width="800" height="400" fill="url(#bannerGradient)"/>
  
  <!-- Grid pattern -->
  <g opacity="0.1">
    <path d="M 0 50 L 800 50 M 0 100 L 800 100 M 0 150 L 800 150 M 0 200 L 800 200 M 0 250 L 800 250 M 0 300 L 800 300 M 0 350 L 800 350" stroke="#3B82F6" stroke-width="1"/>
    <path d="M 50 0 L 50 400 M 100 0 L 100 400 M 150 0 L 150 400 M 200 0 L 200 400 M 250 0 L 250 400 M 300 0 L 300 400 M 350 0 L 350 400 M 400 0 L 400 400 M 450 0 L 450 400 M 500 0 L 500 400 M 550 0 L 550 400 M 600 0 L 600 400 M 650 0 L 650 400 M 700 0 L 700 400 M 750 0 L 750 400" stroke="#3B82F6" stroke-width="1"/>
  </g>
  
  <!-- Main truck -->
  <g transform="translate(100, 200)">
    <rect x="0" y="0" width="120" height="60" rx="8" fill="url(#truckGradient)"/>
    <rect x="10" y="10" width="100" height="40" fill="white" opacity="0.9"/>
    <rect x="20" y="20" width="80" height="20" fill="url(#truckGradient)" opacity="0.3"/>
    <circle cx="30" cy="50" r="8" fill="#1F2937"/>
    <circle cx="90" cy="50" r="8" fill="#1F2937"/>
    <rect x="120" y="20" width="40" height="40" fill="url(#truckGradient)"/>
    <rect x="125" y="25" width="30" height="30" fill="white" opacity="0.9"/>
    <rect x="130" y="30" width="20" height="20" fill="url(#truckGradient)" opacity="0.3"/>
  </g>
  
  <!-- Package icons -->
  <g transform="translate(300, 150)">
    <rect x="0" y="0" width="40" height="40" rx="4" fill="#10B981"/>
    <rect x="8" y="8" width="24" height="24" fill="white" opacity="0.9"/>
    <rect x="12" y="12" width="16" height="16" fill="#10B981" opacity="0.3"/>
  </g>
  
  <g transform="translate(350, 180)">
    <rect x="0" y="0" width="40" height="40" rx="4" fill="#F59E0B"/>
    <rect x="8" y="8" width="24" height="24" fill="white" opacity="0.9"/>
    <rect x="12" y="12" width="16" height="16" fill="#F59E0B" opacity="0.3"/>
  </g>
  
  <g transform="translate(400, 210)">
    <rect x="0" y="0" width="40" height="40" rx="4" fill="#EF4444"/>
    <rect x="8" y="8" width="24" height="24" fill="white" opacity="0.9"/>
    <rect x="12" y="12" width="16" height="16" fill="#EF4444" opacity="0.3"/>
  </g>
  
  <!-- Warehouse -->
  <g transform="translate(500, 180)">
    <rect x="0" y="40" width="80" height="60" fill="#6B7280"/>
    <polygon points="0,40 40,20 80,40" fill="#4B5563"/>
    <rect x="20" y="60" width="20" height="40" fill="#374151"/>
    <rect x="40" y="60" width="20" height="40" fill="#374151"/>
  </g>
  
  <!-- Connection lines -->
  <g stroke="#3B82F6" stroke-width="2" opacity="0.6">
    <path d="M 220 230 L 300 170" stroke-dasharray="5,5"/>
    <path d="M 350 200 L 500 210" stroke-dasharray="5,5"/>
    <path d="M 390 230 L 500 210" stroke-dasharray="5,5"/>
  </g>
  
  <!-- Floating elements -->
  <g opacity="0.7">
    <circle cx="650" cy="100" r="4" fill="#3B82F6"/>
    <circle cx="680" cy="120" r="3" fill="#10B981"/>
    <circle cx="720" cy="90" r="5" fill="#F59E0B"/>
    <circle cx="750" cy="150" r="4" fill="#EF4444"/>
  </g>
</svg> 