<svg width="300" height="200" viewBox="0 0 300 200" xmlns="http://www.w3.org/2000/svg">
  <defs>
    <linearGradient id="hueGradient" x1="0%" y1="0%" x2="100%" y2="100%">
      <stop offset="0%" style="stop-color:#7c3aed;stop-opacity:1" />
      <stop offset="100%" style="stop-color:#a855f7;stop-opacity:1" />
    </linearGradient>
  </defs>
  
  <!-- Background -->
  <rect width="300" height="200" fill="url(#hueGradient)"/>
  
  <!-- Traditional architecture -->
  <rect x="50" y="120" width="200" height="60" fill="#fbbf24" opacity="0.8"/>
  
  <!-- Traditional buildings -->
  <rect x="60" y="100" width="40" height="40" fill="white" opacity="0.9"/>
  <rect x="110" y="90" width="50" height="50" fill="white" opacity="0.9"/>
  <rect x="170" y="95" width="45" height="45" fill="white" opacity="0.9"/>
  <rect x="225" y="100" width="40" height="40" fill="white" opacity="0.9"/>
  
  <!-- Traditional roof details -->
  <polygon points="60,100 80,85 100,100" fill="#fbbf24" opacity="0.9"/>
  <polygon points="110,90 135,75 160,90" fill="#fbbf24" opacity="0.9"/>
  <polygon points="170,95 192.5,80 215,95" fill="#fbbf24" opacity="0.9"/>
  <polygon points="225,100 245,85 265,100" fill="#fbbf24" opacity="0.9"/>
  
  <!-- Logo/Icon -->
  <circle cx="150" cy="50" r="25" fill="white" opacity="0.9"/>
  <text x="150" y="58" text-anchor="middle" fill="#7c3aed" font-family="Arial" font-size="12" font-weight="bold">HU</text>
  
  <!-- Network dots -->
  <circle cx="50" cy="40" r="3" fill="white" opacity="0.8"/>
  <circle cx="250" cy="60" r="3" fill="white" opacity="0.8"/>
  <circle cx="80" cy="30" r="3" fill="white" opacity="0.8"/>
  <circle cx="220" cy="45" r="3" fill="white" opacity="0.8"/>
  
  <!-- Traditional elements -->
  <circle cx="80" cy="70" r="3" fill="white" opacity="0.6"/>
  <circle cx="135" cy="65" r="3" fill="white" opacity="0.6"/>
  <circle cx="192.5" cy="70" r="3" fill="white" opacity="0.6"/>
  <circle cx="245" cy="75" r="3" fill="white" opacity="0.6"/>
</svg> 