<svg width="300" height="200" viewBox="0 0 300 200" xmlns="http://www.w3.org/2000/svg">
  <defs>
    <linearGradient id="hanoiGradient" x1="0%" y1="0%" x2="100%" y2="100%">
      <stop offset="0%" style="stop-color:#1e40af;stop-opacity:1" />
      <stop offset="100%" style="stop-color:#3b82f6;stop-opacity:1" />
    </linearGradient>
  </defs>
  
  <!-- Background -->
  <rect width="300" height="200" fill="url(#hanoiGradient)"/>
  
  <!-- City skyline -->
  <rect x="20" y="120" width="40" height="60" fill="white" opacity="0.9"/>
  <rect x="70" y="100" width="35" height="80" fill="white" opacity="0.9"/>
  <rect x="115" y="110" width="30" height="70" fill="white" opacity="0.9"/>
  <rect x="155" y="90" width="45" height="90" fill="white" opacity="0.9"/>
  <rect x="210" y="105" width="35" height="75" fill="white" opacity="0.9"/>
  <rect x="255" y="115" width="25" height="65" fill="white" opacity="0.9"/>
  
  <!-- Windows -->
  <rect x="25" y="125" width="8" height="8" fill="#1e40af"/>
  <rect x="40" y="125" width="8" height="8" fill="#1e40af"/>
  <rect x="25" y="140" width="8" height="8" fill="#1e40af"/>
  <rect x="40" y="140" width="8" height="8" fill="#1e40af"/>
  
  <rect x="75" y="105" width="8" height="8" fill="#1e40af"/>
  <rect x="90" y="105" width="8" height="8" fill="#1e40af"/>
  <rect x="75" y="120" width="8" height="8" fill="#1e40af"/>
  <rect x="90" y="120" width="8" height="8" fill="#1e40af"/>
  
  <!-- Logo/Icon -->
  <circle cx="150" cy="50" r="25" fill="white" opacity="0.9"/>
  <text x="150" y="58" text-anchor="middle" fill="#1e40af" font-family="Arial" font-size="12" font-weight="bold">HN</text>
  
  <!-- Network dots -->
  <circle cx="50" cy="40" r="3" fill="white" opacity="0.8"/>
  <circle cx="250" cy="60" r="3" fill="white" opacity="0.8"/>
  <circle cx="80" cy="30" r="3" fill="white" opacity="0.8"/>
  <circle cx="220" cy="45" r="3" fill="white" opacity="0.8"/>
</svg> 